# xmcd
#
# Track frame offsets:
#	150
#	19082
#	34537
#	46418
#	61598
#	79372
#	92729
#	100856
#	121761
#	138336
#	153708
#	165297
#	178423
#	195610
#	208764
#	231717
#	241791
#	261700
#	274624
#	295060
#	306254
#
# Disc length: 4323 seconds
#
# Revision: 1
# Processed by: cddbd v1.5.2PL0 Copyright (c) Steve Scherf et al.
# Submitted via: audiograbber 1.83.01
#
DISCID=2b10e115
DTITLE=Krock - Live v Balbínce
DYEAR=2009
DGENRE=
TTITLE0=Napomínání ticha
TTITLE1=Psali to v novinách
TTITLE2=To jsou ty ulice
TTITLE3=Potme
TTITLE4=Nevsimnuli si
TTITLE5=Muj svet
TTITLE6=Ti nejlepsí z nás
TTITLE7=Pet kamarádu
TTITLE8=Este blues
TTITLE9=Neviditelný
TTITLE10=Stín
TTITLE11=Uz se stehují
TTITLE12=Inventura
TTITLE13=California
TTITLE14=Pokus o bolest
TTITLE15=Volám ji
TTITLE16=V mori
TTITLE17=Je to na vás
TTITLE18=Amerika
TTITLE19=Dokorán
TTITLE20=Sára
EXTD=Krock =Míla Fuxa, Ondrej Sebesta, Milan Machulda\nNahráno 7.6.2009 v Balb
EXTD=ínove poetické hospudce
EXTT0=
EXTT1=
EXTT2=
EXTT3=
EXTT4=
EXTT5=
EXTT6=
EXTT7=
EXTT8=
EXTT9=
EXTT10=
EXTT11=
EXTT12=
EXTT13=
EXTT14=
EXTT15=
EXTT16=
EXTT17=
EXTT18=
EXTT19=
EXTT20=
PLAYORDER=
